<svg xmlns="http://www.w3.org/2000/svg" viewBox="0 0 3988.67 546.18"><defs><style>.cls-1{fill:#fafafa;}.cls-2{fill:#fff;}.cls-3{fill:#ea4f3b;}.cls-4{fill:#371a45;}.cls-5{fill:#f2834c;}.cls-6{fill:#ffc73b;}.cls-7{fill:#36b3ff;}.cls-8{fill:#f75c5c;}.cls-9{fill:#ff2c2c;}.cls-10{opacity:0.2;}.cls-11{fill:#450185;}.cls-12{opacity:0.25;}.cls-13{opacity:0.6;}.cls-14{fill:#a4dcff;}.cls-15{fill:#54ef50;}.cls-16{fill:#4accff;}.cls-17{opacity:0.7;}.cls-18{opacity:0.35;}.cls-19{fill:#111a28;}.cls-20{opacity:0.5;}</style></defs><g id="Layer_2" data-name="Layer 2"><g id="Layer_1-2" data-name="Layer 1"><path class="cls-1" d="M3988.67,546.18c-42.18-28.6-94.14-57.29-157.3-86.07-60-27.33-277.91-158.74-472.42-71.32-131.35,59-186.44,146.2-274.71,128.77-108.71-21.47-205-272.84-205-272.84S2782.79,490.77,2675,520.42c-116,31.92-221.89-15.4-390.85-91.36C1963.47,284.89,1750,576.61,1310.1,494.67c-265.43-49.44-365.8-112.34-644.72-154.22C395.82,300,144.87,374.38,2.39,543.31c-.8,1-1.59,1.92-2.39,2.87Z"/><path class="cls-2" d="M2681.65,472.5c.08.84-1.57,1.74-4.1,2.39a3,3,0,0,0-2.28,2.76c-.16,2.61-.73,4.4-1.57,4.48s-1.74-1.57-2.39-4.1a3,3,0,0,0-2.76-2.29c-2.61-.16-4.41-.72-4.49-1.56s1.58-1.75,4.11-2.39a3.06,3.06,0,0,0,2.29-2.77c.15-2.61.72-4.4,1.56-4.48s1.74,1.57,2.39,4.11a3,3,0,0,0,2.77,2.28C2679.78,471.09,2681.57,471.66,2681.65,472.5Z"/><path class="cls-2" d="M3105.33,341c0,.7-1.37,1.4-3.52,1.86a2.57,2.57,0,0,0-2,2.25c-.22,2.18-.75,3.67-1.46,3.71s-1.41-1.38-1.87-3.52a2.55,2.55,0,0,0-2.24-2c-2.19-.22-3.68-.75-3.72-1.46s1.38-1.41,3.52-1.87a2.55,2.55,0,0,0,2-2.24c.22-2.19.75-3.67,1.46-3.71s1.41,1.37,1.87,3.52a2.54,2.54,0,0,0,2.25,2C3103.81,339.73,3105.29,340.27,3105.33,341Z"/><path class="cls-2" d="M2990.52,39.55c0,1-1.95,1.78-4.86,2.24a3.44,3.44,0,0,0-2.87,2.86c-.45,2.92-1.28,4.87-2.24,4.87s-1.78-2-2.24-4.87a3.44,3.44,0,0,0-2.86-2.86c-2.92-.46-4.88-1.29-4.88-2.24s2-1.79,4.88-2.24a3.44,3.44,0,0,0,2.86-2.87c.46-2.92,1.29-4.87,2.24-4.87s1.79,1.95,2.24,4.87a3.45,3.45,0,0,0,2.87,2.87C2988.57,37.76,2990.52,38.59,2990.52,39.55Z"/><circle class="cls-2" cx="3098.59" cy="260.09" r="3.11"/><circle class="cls-2" cx="3126.58" cy="386.93" r="3.11"/><circle class="cls-2" cx="3017.28" cy="489.82" r="3.69"/><circle class="cls-2" cx="2670.11" cy="130.63" r="3.89"/><circle class="cls-2" cx="3025.32" cy="128.04" r="3.11"/><circle class="cls-2" cx="2749.26" cy="51.6" r="3.89"/><circle class="cls-2" cx="2628.89" cy="441.16" r="3.5"/><circle class="cls-2" cx="3054.79" cy="66.33" r="1.6"/><circle class="cls-2" cx="3096.7" cy="459.85" r="1.9"/><circle class="cls-2" cx="2756.37" cy="122.49" r="2"/><circle class="cls-2" cx="2716.93" cy="372.59" r="1.8"/><circle class="cls-2" cx="2632.32" cy="343.34" r="3.5"/><path class="cls-3" d="M2888.74,323.8c-9.83,11.48-13.84,32-15.29,42.33a.74.74,0,0,1-1.47,0c-1.45-10.28-5.46-30.7-15.33-42.23-13.18-15.4-15.11-36.58-5.05-50.64l.33-.46a25.89,25.89,0,0,1,41.6,0l.25.35C2903.84,287.21,2901.91,308.4,2888.74,323.8Z"/><path class="cls-4" d="M2872.71,369.39a3.34,3.34,0,0,1-3.33-2.89c-1.49-10.6-5.4-30-14.73-40.89-13.8-16.13-16-38.79-5.18-53.88a5.92,5.92,0,0,1,.35-.48,28.27,28.27,0,0,1,22.95-11.55h.07a28.1,28.1,0,0,1,22.81,11.56l.27.37c10.8,15.09,8.62,37.74-5.19,53.88h0c-9.62,11.24-13.47,32.41-14.68,41A3.34,3.34,0,0,1,2872.71,369.39Zm.06-104.43a23.1,23.1,0,0,0-18.73,9.41l-.3.42c-9.41,13.15-7.35,33.08,4.9,47.4,7.49,8.73,11.72,22.1,14.07,33,2.35-11,6.58-24.4,14-33.11h0c12.25-14.32,14.32-34.25,4.9-47.4l-.23-.32a22.87,22.87,0,0,0-18.58-9.41Zm16,58.84Z"/><path class="cls-5" d="M2884.52,309c-9.95,11.63-13.64,11.77-23.66.07-9.72-11.36-11.14-27-3.72-37.35l.24-.33a19.08,19.08,0,0,1,30.68,0c.06.08.12.17.19.25C2895.67,282.05,2894.24,297.67,2884.52,309Z"/><path class="cls-6" d="M2879.41,289.42c-5.65,6.6-7.75,6.67-13.43,0-5.52-6.45-6.32-15.31-2.11-21.19,0-.07.09-.13.13-.19a10.83,10.83,0,0,1,17.41,0,1.71,1.71,0,0,0,.11.14C2885.73,274.11,2884.92,283,2879.41,289.42Z"/><path class="cls-7" d="M2839.31,217.16h66.76a0,0,0,0,1,0,0V231.9a33.16,33.16,0,0,1-33.16,33.16h-.45a33.16,33.16,0,0,1-33.16-33.16V217.16A0,0,0,0,1,2839.31,217.16Z"/><path class="cls-4" d="M2884.85,267.69h-24.32a23.88,23.88,0,0,1-23.85-23.85V217.16a2.63,2.63,0,0,1,2.63-2.63h66.76a2.63,2.63,0,0,1,2.63,2.63v26.68A23.88,23.88,0,0,1,2884.85,267.69Zm-42.91-47.91v24.06a18.61,18.61,0,0,0,18.59,18.59h24.32a18.61,18.61,0,0,0,18.59-18.59V219.78Z"/><path class="cls-8" d="M2920.52,212l-16.21,29.25s16.31,3.24,23.94,26.69a2.67,2.67,0,0,0,4.84.54C2938.92,258.56,2947.93,234.91,2920.52,212Z"/><path class="cls-9" d="M2843.29,242.14s-16.31,3.24-23.94,26.69a2.67,2.67,0,0,1-4.84.53c-5-8.56-12.39-27.28,3.15-46.92a64.82,64.82,0,0,1,9.42-9.56Z"/><g class="cls-10"><path class="cls-11" d="M2843.29,242.15s-16.31,3.23-23.94,26.69a2.63,2.63,0,0,1-2.44,1.84,35.36,35.36,0,0,1,2.24-19.31,27.48,27.48,0,0,0,.43-20.5,36,36,0,0,1-1.92-8.42,63.87,63.87,0,0,1,9.42-9.56Z"/></g><path class="cls-9" d="M2934.11,266.69c-.34.66-.69,1.26-1,1.83a2.67,2.67,0,0,1-4.84-.54c-7.63-23.45-23.94-26.69-23.94-26.69L2920.53,212a65.34,65.34,0,0,1,8.43,8.34C2944.7,239.16,2939.09,257.27,2934.11,266.69Z"/><g class="cls-10"><path class="cls-11" d="M2934.11,266.69c-.34.66-.69,1.26-1,1.83a2.67,2.67,0,0,1-4.84-.54c-7.63-23.45-23.94-26.69-23.94-26.69L2920.53,212a65.34,65.34,0,0,1,8.43,8.34,86,86,0,0,1-5.44,12S2932.07,248.69,2934.11,266.69Z"/></g><path class="cls-11" d="M2930.82,272.46l-.59,0a5.24,5.24,0,0,1-4.47-3.64c-7.08-21.73-21.82-24.89-22-24.92A2.62,2.62,0,0,1,2902,240l16.21-29.26a2.65,2.65,0,0,1,4-.74c29.21,24.38,18.93,50,13.15,59.83A5.22,5.22,0,0,1,2930.82,272.46Zm-22.68-32.66c5.55,2.28,16.63,9,22.61,27.36l.07,0c6.13-10.48,12.75-30.73-9.57-51.06Z"/><path class="cls-4" d="M2816.78,273.31a5.21,5.21,0,0,1-4.54-2.62c-5.78-9.86-16.06-35.44,13.15-59.82a2.64,2.64,0,0,1,4,.74l16.22,29.26a2.62,2.62,0,0,1-1.79,3.85c-.59.13-14.94,3.37-22,24.92a5.23,5.23,0,0,1-4.47,3.64Zm9.57-56.31c-22.32,20.33-15.7,40.58-9.58,51l2.57.79-2.49-.81c6-18.38,17.06-25.09,22.61-27.37Z"/><path class="cls-4" d="M2930.82,272.46l-.59,0a5.24,5.24,0,0,1-4.47-3.64c-7.08-21.73-21.82-24.89-22-24.92A2.62,2.62,0,0,1,2902,240l16.21-29.26a2.65,2.65,0,0,1,4-.74c29.21,24.38,18.93,50,13.15,59.83A5.22,5.22,0,0,1,2930.82,272.46Zm-22.68-32.66c5.55,2.28,16.63,9,22.61,27.36l.07,0c6.13-10.48,12.75-30.73-9.57-51.06Z"/><path class="cls-2" d="M2904.21,244.28h0a89.23,89.23,0,0,1-63,0h0s-35.59-27.13-33.15-118.95c1.89-71.4,44.51-109.69,59.52-121a8.61,8.61,0,0,1,10.34,0c15,11.3,57.64,49.59,59.52,121C2939.8,217.15,2904.21,244.28,2904.21,244.28Z"/><path class="cls-9" d="M2928.15,74.27a197.31,197.31,0,0,0-110.81-.4q1.24-3.5,2.61-6.81c14.24-34.75,37.32-55,47.55-62.72a8.6,8.6,0,0,1,10.35,0,128.35,128.35,0,0,1,9.9,8.31A154,154,0,0,1,2928.15,74.27Z"/><g class="cls-12"><path class="cls-4" d="M2928.15,74.27a197.31,197.31,0,0,0-110.81-.4q1.24-3.5,2.61-6.81c9.29-2.92,34.57-10.23,59.93-12.08a18.52,18.52,0,0,0,16.59-23.29,61.74,61.74,0,0,0-8.72-19A154,154,0,0,1,2928.15,74.27Z"/></g><g class="cls-13"><path class="cls-2" d="M2877.85,4.34a8.6,8.6,0,0,0-10.35,0c-2.4,1.81-5.51,4.31-9.05,7.53a150.73,150.73,0,0,0-16.31,17.45,154.08,154.08,0,0,0-24.8,44.55q2.82-.84,5.7-1.59a154.3,154.3,0,0,1,23.56-39c3.8,1.13,8.81-.58,12.46-4.62,3.39-3.75,4.66-8.45,3.63-12,2.92-2.58,5.5-4.64,7.56-6.19a8.58,8.58,0,0,1,10.34,0,151,151,0,0,1,43.85,54.38C2910.15,31.42,2887.85,11.87,2877.85,4.34Z"/></g><path class="cls-4" d="M2872.67,252.67a91.74,91.74,0,0,1-32.43-5.92,3,3,0,0,1-.7-.38c-.39-.3-9.51-7.39-18.28-26-8-16.92-17.18-47.15-15.91-95.1.82-31.14,9.32-59.53,25.26-84.38a150.94,150.94,0,0,1,35.31-38.63,11.27,11.27,0,0,1,13.5,0,151.21,151.21,0,0,1,35.31,38.64c15.94,24.85,24.44,53.24,25.26,84.38,1.27,48-7.95,78.18-15.91,95.1-8.77,18.62-17.89,25.71-18.28,26a2.67,2.67,0,0,1-.66.37A92,92,0,0,1,2872.67,252.67ZM2842.46,242a86.58,86.58,0,0,0,60.42,0c1.52-1.3,9.24-8.39,16.65-24.29,7.62-16.38,16.44-45.67,15.21-92.28-1.88-70.93-45.24-109-58.48-119a6,6,0,0,0-7.18,0c-13.24,10-56.6,48-58.48,119-1.23,46.61,7.59,75.9,15.21,92.28C2833.21,233.58,2840.93,240.67,2842.46,242Zm61.75,2.31h0Zm0,0h0Z"/><g class="cls-12"><path class="cls-4" d="M2904.21,244.27a89.23,89.23,0,0,1-63,0l0,0s-18.14-13.82-27.63-55.18c8.15,16.21,16.15,22.31,16.15,22.31h0a89.16,89.16,0,0,0,44.12,4.85,44.23,44.23,0,0,0,32-21.4q.51-.88,1-1.86c7.66-16.84-7.07-35.18-25.35-32.34a38,38,0,1,1,21.67-63.79A6.09,6.09,0,0,0,2913.48,94l0-.2c3.24-15.44,10.53-24.72,8.18-35,8.54,17.77,15,39.85,15.67,66.57C2939.8,217.15,2904.21,244.27,2904.21,244.27Z"/></g><circle class="cls-7" cx="2872.06" cy="113.34" r="35.03"/><g class="cls-13"><path class="cls-2" d="M2840,117.75a35,35,0,0,1,62.64-21.54,35,35,0,1,0-58.16,38.67A34.85,34.85,0,0,1,2840,117.75Z"/></g><g class="cls-12"><path class="cls-4" d="M2907.09,113.33a35,35,0,0,1-69.48,6.37,35,35,0,0,0,64.07-19.59,34.28,34.28,0,0,0-.58-6.36A34.87,34.87,0,0,1,2907.09,113.33Z"/></g><circle class="cls-14" cx="2872.06" cy="113.34" r="21.81"/><g class="cls-13"><path class="cls-2" d="M2893.42,108.93a21.81,21.81,0,0,0-41,10.35,21.45,21.45,0,0,0,.45,4.42,21.81,21.81,0,1,1,40.55-14.77Z"/></g><g class="cls-12"><path class="cls-4" d="M2893.86,113.33a21.8,21.8,0,0,1-43.55,1.39,21.79,21.79,0,0,0,39-13.44c0-.47,0-.93-.05-1.39A21.67,21.67,0,0,1,2893.86,113.33Z"/></g><ellipse class="cls-2" cx="2879.29" cy="103.61" rx="5.46" ry="6.82" transform="translate(265.9 1316.56) rotate(-26.96)"/><path class="cls-4" d="M2872.06,151a37.66,37.66,0,1,1,37.65-37.65A37.7,37.7,0,0,1,2872.06,151Zm0-70.05a32.4,32.4,0,1,0,32.4,32.4A32.43,32.43,0,0,0,2872.06,80.94Z"/><path class="cls-4" d="M2872.06,137.77a24.44,24.44,0,1,1,24.43-24.43A24.47,24.47,0,0,1,2872.06,137.77Zm0-43.61a19.18,19.18,0,1,0,19.17,19.18A19.2,19.2,0,0,0,2872.06,94.16Z"/><path class="cls-9" d="M2887.49,238.47c0,20.82-15.43,32.78-15.43,32.78s-15.43-12-15.43-32.78,15.43-27.65,15.43-27.65S2887.49,217.66,2887.49,238.47Z"/><g class="cls-13"><path class="cls-2" d="M2887.45,236.56c-2.95-15.29-14.78-20.54-14.78-20.54a18,18,0,0,0-2.39,1.39c1.19.77,1.28,3.15.18,5.46s-3.19,3.87-4.54,3.22c-1.09-.52-1.41-2.22-.9-4.12-3.88,4.31-7.78,11.25-7.78,21.71,0,.75,0,1.5.06,2.22a41.81,41.81,0,0,1-.67-7.43c0-20.81,15.43-27.66,15.43-27.66S2886.54,217.24,2887.45,236.56Z"/></g><g class="cls-10"><path class="cls-11" d="M2887.49,238.47c0,20.81-15.43,32.77-15.43,32.77s-15.43-12-15.43-32.77c0-1.28.06-2.52.17-3.7a45,45,0,0,0,2,4,11.44,11.44,0,0,0,19.94-.1,42.15,42.15,0,0,0,5.17-15.87A33.6,33.6,0,0,1,2887.49,238.47Z"/></g><path class="cls-4" d="M2872.06,273.87a2.61,2.61,0,0,1-1.61-.55c-.67-.52-16.45-13-16.45-34.85,0-22.26,16.3-29.75,17-30.06a2.63,2.63,0,0,1,2.13,0c.69.31,17,7.8,17,30.06,0,21.85-15.78,34.33-16.45,34.85A2.59,2.59,0,0,1,2872.06,273.87Zm0-60.09c-3.27,1.91-12.81,8.83-12.81,24.69,0,15.29,9.05,25.62,12.81,29.25,3.76-3.63,12.8-14,12.8-29.25C2884.86,222.62,2875.34,215.7,2872.06,213.78Z"/><path class="cls-4" d="M2928.14,76.9a2.85,2.85,0,0,1-.76-.11,194.63,194.63,0,0,0-109.29-.4,2.63,2.63,0,0,1-3.23-3.4c14.18-39.81,40.43-62.74,51.06-70.75a11.31,11.31,0,0,1,13.5,0c10.69,8,37.07,31.1,51.2,71.16a2.63,2.63,0,0,1-2.48,3.5Zm-56.08-13.4a196,196,0,0,1,51.8,6.8c-14-35.73-37.73-56.43-47.6-63.86a6,6,0,0,0-7.19,0c-9.81,7.4-33.44,28-47.45,63.49A196.1,196.1,0,0,1,2872.06,63.5Z"/><path class="cls-15" d="M3048.7,404c-16.75,7-19.61-2.7-16.83-7,0,0-8.72-3.78,0-12.43l-5.78-17.45-.63-1.91S3018.79,416,3011.51,439a74.19,74.19,0,0,1,2.29,13.28c.43,6.35-.42,12.81-5.31,13.86-10.06,2.17-34.38-3.24-31.14-68.11L2971,422.89s-.72,37.57-19.09,41.22-12.44-30.41-12.44-30.41-2.92-47.91-.92-68.55,7.41-30.72,7.41-30.72a156.88,156.88,0,0,1-27.57-49.07c-4.48-13.34-5.75-24.61-4.38-33.14,1.59-10,6.78-16.17,14.65-17.56,4.75-.84,7.89-.12,10,1.24a9.12,9.12,0,0,1,3.81,5.81,11.42,11.42,0,0,1,.28,2.57,15.45,15.45,0,0,1,2.65,4.66,13.86,13.86,0,0,1-2.11,13.42v.06c.11.8,1.35,9.4,8.65,22.94a16.31,16.31,0,0,0,5.2,5.27c9.95,7,31,13.29,54.36,18.61,10.79,2.45,18.61,6.35,24.36,11.3,9.76,8.39,13.57,19.84,15.79,32.5,1.62,9.27,4.68,19.31,5.87,28.14C3058.91,391.52,3057.74,400.18,3048.7,404Z"/><g class="cls-12"><path class="cls-4" d="M3035.87,320.54a78.37,78.37,0,0,1-47.63,13.63,20.21,20.21,0,0,1-15.72-8.69,100,100,0,0,1-15.37-34.85c9.95,7,31,13.29,54.36,18.61C3022.3,311.69,3030.12,315.59,3035.87,320.54Z"/></g><path class="cls-4" d="M3004.86,469.13a22.18,22.18,0,0,1-14.58-5.57c-9.21-7.83-14.44-22.69-15.61-44.3l-1,4c-.11,4-1.71,39.56-21.21,43.43-5.63,1.12-9.13-.91-11.08-2.8-7.85-7.67-5.07-26.91-4.5-30.32-.27-4.47-2.83-48.68-.89-68.66,1.59-16.43,5.29-26.35,6.92-30.06a159.79,159.79,0,0,1-27-48.64c-6.42-19.1-6.74-35-.91-44.87a18.87,18.87,0,0,1,13.21-9.26c5.62-1,10-.13,13.09,2.56a12.81,12.81,0,0,1,4,8.67,16.89,16.89,0,0,1,.71,19.67c.47,2.53,2.29,10.18,8.2,21.15,2.14,4,12.52,12.22,57.83,22.55,31.22,7.12,38.71,26.28,42.16,45.92.7,4,1.7,8.27,2.67,12.39,4,17.18,8.2,35-7.2,41.42-12.15,5.09-17.4,1.76-19.45-.67a8.68,8.68,0,0,1-1.66-7.75,8.39,8.39,0,0,1-3.11-5c-.55-2.91.59-6,3.38-9.15l-2.38-7.19c-2.36,16.12-7.1,45.72-12.25,62.39,1,3.85,4.47,18.6.18,25.71a8.26,8.26,0,0,1-5.39,3.95A20.65,20.65,0,0,1,3004.86,469.13Zm-27.51-73.73a2.56,2.56,0,0,1,.39,0,2.63,2.63,0,0,1,2.23,2.73c-2,39.43,6.37,55.15,13.72,61.39a16.51,16.51,0,0,0,14.24,4,3,3,0,0,0,2-1.52c2.65-4.4.82-16-.95-22.34a2.59,2.59,0,0,1,0-1.51c7.12-22.47,13.78-72.88,13.84-73.39a2.63,2.63,0,0,1,5.1-.48l6.41,19.36a2.61,2.61,0,0,1-.64,2.69c-2.23,2.21-3.32,4.21-3.06,5.63.28,1.58,2.26,2.53,2.28,2.53a2.66,2.66,0,0,1,1.14,3.83,3.51,3.51,0,0,0,.22,4c.7.83,3.74,3.25,13.39-.8,10.51-4.41,8.45-16.87,4.11-35.37-1-4.19-2-8.53-2.73-12.69-3.62-20.63-11.49-35.62-38.14-41.69-36.62-8.35-56.67-16.59-61.3-25.19h0c-7.82-14.51-8.91-23.58-9-24a2.65,2.65,0,0,1,.48-1.83,11.78,11.78,0,0,0-.36-14.79,2.62,2.62,0,0,1-.67-1.87s.08-3.56-2.29-5.6c-1.81-1.57-4.73-2-8.68-1.31a13.56,13.56,0,0,0-9.61,6.76c-5,8.37-4.47,23.14,1.37,40.52a155.84,155.84,0,0,0,27,48.16,2.62,2.62,0,0,1,.35,3c0,.09-5.19,10-7.1,29.74-2,20.2.89,67.66.92,68.13a3.08,3.08,0,0,1,0,.61c-1,5.49-2.29,20.86,3,26,1.53,1.5,3.62,2,6.38,1.41,13.35-2.65,16.79-28.83,17-38.69a2.33,2.33,0,0,1,.08-.59l6.3-24.87A2.63,2.63,0,0,1,2977.35,395.4Z"/><path class="cls-4" d="M2958.61,390.1a94.37,94.37,0,0,0,19.22,5.34c3.28.45,6.58.86,9.93,1.24s6.75.76,10.31,1.35a25.25,25.25,0,0,1-5.05,1.83c-12,3-26.77.73-34.41-9.76Z"/><path class="cls-4" d="M2963.63,426c-18.36,0-26.63-9-27-9.47a2.63,2.63,0,0,1,3.92-3.5c.4.43,9.33,9.89,30.17,7.25a2.63,2.63,0,1,1,.66,5.21A61.58,61.58,0,0,1,2963.63,426Z"/><path class="cls-4" d="M3000.38,431.52a55.93,55.93,0,0,1-24-5.83,2.63,2.63,0,0,1,2.47-4.64h0c.19.1,18.62,9.69,35.08,2.53a2.63,2.63,0,1,1,2.1,4.82A39,39,0,0,1,3000.38,431.52Z"/><path class="cls-4" d="M3013.31,440.91a20.69,20.69,0,0,1-14.28,3.9,25.76,25.76,0,0,1-4.7-.86,1.45,1.45,0,0,1,.46-2.86c5,.75,10.42-.19,14.35-3.48a4.24,4.24,0,0,0,.57-.53,2.63,2.63,0,0,1,3.6,3.83Z"/><path class="cls-4" d="M2954.84,440.22a24.85,24.85,0,0,1-13.2-2,14.71,14.71,0,0,1-4.17-2.87,2.63,2.63,0,1,1,4.08-3.31,9.74,9.74,0,0,0,2.37,2.23,21.27,21.27,0,0,0,10.86,3.49,1.23,1.23,0,0,1,.06,2.45Z"/><path class="cls-4" d="M3022.73,365.74c.7-6.31,1.3-12.69,1.76-19a170.19,170.19,0,0,0,.56-19,1.13,1.13,0,0,1,1.07-1.2,1.14,1.14,0,0,1,1.19,1c.43,3.24.6,6.47.74,9.69.25,6.45.24,12.88.15,19.32,0,3.22-.12,6.42-.23,9.66a2.63,2.63,0,1,1-5.24-.4Z"/><path class="cls-4" d="M3025.75,362.55a2.63,2.63,0,0,1-.91-5.1c.64-.23,15.67-5.72,27-5.85h0a2.63,2.63,0,0,1,0,5.26c-10.44.11-25.1,5.47-25.25,5.53A2.65,2.65,0,0,1,3025.75,362.55Z"/><path class="cls-4" d="M3030.06,382.61l3.61-2.48a2,2,0,0,1,2.67,2.82l-2.66,3.47a2.66,2.66,0,1,1-3.62-3.81Z"/><path class="cls-4" d="M3031.87,399.57a2.63,2.63,0,0,1-.35-5.23,11.92,11.92,0,0,0,5.12-1.92,2.63,2.63,0,1,1,3.4,4c-2.85,2.41-7.33,3.06-7.83,3.12A1.94,1.94,0,0,1,3031.87,399.57Z"/><path class="cls-4" d="M3038.06,389.53c2.88,1.57,4.54,5.44,2.94,8.44a2,2,0,0,1-2.7.73,3,3,0,0,1-1-1.15,10.26,10.26,0,0,1-1.09-2.71,11.63,11.63,0,0,1-.64-3.84,1.71,1.71,0,0,1,2.49-1.47Z"/><path class="cls-4" d="M2943.62,333.3l10.86-20.9a1.78,1.78,0,0,1,3.22,1.52l-9.33,21.64a2.63,2.63,0,1,1-4.75-2.26Z"/><path class="cls-4" d="M2923.52,301a2.63,2.63,0,0,1-.27-5.24h0a65.06,65.06,0,0,0,28-11.2,2.63,2.63,0,0,1,3.1,4.24A69.17,69.17,0,0,1,2923.8,301Z"/><path class="cls-4" d="M2943.52,246.19c-2.76,1.4-6.39,2.74-8.37,5.07a2.05,2.05,0,0,0,0,2.47c.85,1.17,2.56,1.08,4.06.77a.81.81,0,0,1,.73,1.36,6.1,6.1,0,0,1-5.19,1.94c-4.1-.55-6.25-5.57-4.33-9.11s5.06-5.18,8.42-6.57c2.19-.81,5.38-2.13,6.28,1.08a2.66,2.66,0,0,1-1.57,3Z"/><path class="cls-4" d="M2934,254.58c-3.71,2.62-8.85,2.44-12.7.31-.85-.55-2.54-1.12-1.83-2.41a1.12,1.12,0,0,1,1.4-.44c3.12,1.2,7.33,1.18,9.62-1.37a2.63,2.63,0,0,1,3.51,3.91Z"/><path class="cls-15" d="M3039,204c27.75,15.49,43.25,59,10.81,93.3-22.38,23.64-48,26.34-61.76,25.74a20.16,20.16,0,0,1-15.72-8.69c-9.84-14.21-26.22-46.3-11.17-81.7C2977,195.32,3014.74,190.44,3039,204Z"/><g class="cls-13"><path class="cls-2" d="M3068,255.9c-1.79-19.45-13.4-36.63-28.77-45.21a55.52,55.52,0,0,0-31.41-6.69,2,2,0,0,1,.08.35c.42,2.55-2.54,5.17-6.62,5.84-3.82.63-7.27-.67-8-2.94-12.93,4.88-24.66,15.13-31.87,32.08a75.46,75.46,0,0,0-6.09,28.78,75.31,75.31,0,0,1,5.87-35.5C2977,195.32,3014.74,190.44,3039,204,3056.09,213.52,3068.55,233.76,3068,255.9Z"/></g><g class="cls-12"><path class="cls-4" d="M3049.79,297.26c-22.39,23.65-48,26.36-61.77,25.75a20.17,20.17,0,0,1-15.72-8.69c-6.13-8.85-14.81-24.65-16.83-43.87A101.08,101.08,0,0,0,2970,301.91a20.16,20.16,0,0,0,15.72,8.69c13.74.6,39.38-2.1,61.76-25.75,14.1-14.89,19.14-31.54,18.05-46.87C3071,256.33,3067.8,278.22,3049.79,297.26Z"/></g><path class="cls-4" d="M2991.29,325.71c-1.2,0-2.33,0-3.38-.07a23,23,0,0,1-17.77-9.82c-8.8-12.7-27.53-46.34-11.43-84.23,9.1-21.4,24-30.35,35-34.09a58.25,58.25,0,0,1,46.58,4.17c15.5,8.66,26.87,25.4,29.67,43.68,2.92,19.13-3.55,38.21-18.23,53.72C3030.25,321.73,3005.82,325.71,2991.29,325.71Zm20.85-126a52,52,0,0,0-16.77,2.75c-9.91,3.4-23.48,11.56-31.82,31.18-15.08,35.48,2.61,67.19,10.91,79.17a17.69,17.69,0,0,0,13.67,7.57c13,.56,38-1.92,59.74-24.93,13.55-14.31,19.53-31.82,16.85-49.31-2.56-16.72-12.91-32-27-39.89A52.71,52.71,0,0,0,3012.14,199.72Z"/><path class="cls-4" d="M2996.27,251.72c4.44,12.71.34,26.36-7.28,29.2-6.24,2.33-20.65-5.78-25-16.59-5-12.5-.86-25.56,6.68-28.61S2990.68,235.68,2996.27,251.72Z"/><path class="cls-2" d="M2972,241a1.17,1.17,0,0,1,0-2.28,13.67,13.67,0,0,1,11.75,2.22,17.37,17.37,0,0,1,5.7,7.78,1.17,1.17,0,0,1-2,1.15A27.52,27.52,0,0,0,2972,241Z"/><path class="cls-4" d="M3025.25,261c-12.24,5.63-19.21,18-16,25.51,2.65,6.1,18.49,10.86,29.28,6.47,12.47-5.07,19-17.11,16-24.66S3040.67,253.87,3025.25,261Z"/><path class="cls-2" d="M3049.83,271a1.17,1.17,0,0,0,1.65-1.57,13.68,13.68,0,0,0-9.75-6.93,17.38,17.38,0,0,0-9.56,1.3,1.17,1.17,0,0,0,.56,2.23A27.51,27.51,0,0,1,3049.83,271Z"/><ellipse class="cls-4" cx="2995.77" cy="285.37" rx="1.31" ry="1.85"/><ellipse class="cls-4" cx="3000.82" cy="287.43" rx="1.85" ry="1.31" transform="translate(258.32 1538.92) rotate(-30)"/><path class="cls-4" d="M2988.84,290.46c1.26,2.84,3,5,5.79,6s5.58.52,8.53-.42c-4.4,7.29-16.57,3-14.32-5.54Z"/><path class="cls-15" d="M3000.24,211c1.33-25-15.61-26.55-15.61-26.55a5.09,5.09,0,0,1-5.08-5.09,5.21,5.21,0,0,1,.19-1.37,5.08,5.08,0,0,1,10,1.37s16,3.58,19.53,30.59c.05.35.09.7.13,1Z"/><g class="cls-13"><path class="cls-2" d="M3009.25,209.93c-6.68-25-22.73-28.48-22.73-28.48-.4-7.16-6.78-3.48-6.78-3.48a5.08,5.08,0,0,1,10,1.37S3005.75,182.92,3009.25,209.93Z"/></g><path class="cls-4" d="M3008.42,211.1a77.35,77.35,0,0,0-2.13-9.41c-.27-.78-.94-2.64-1.2-3.38a42.78,42.78,0,0,0-2.6-5.31c-3-5.05-7.24-9.55-12.87-11.36a3.19,3.19,0,0,0-.39-.1,2.15,2.15,0,0,1-1.76-2.2,2.93,2.93,0,0,0-5-2.13,3.11,3.11,0,0,0,2.13,5.32c7.15.93,12.88,6.68,15.25,13.26.2.73.79,2.51,1,3.23s.45,2.54.58,3.29c.14,1.46.24,2.93.31,4.39l-.1,4.36a1.39,1.39,0,0,1-2.78,0v-.12l0-4.12c-.12-1.36-.25-2.71-.41-4.06-.14-.68-.49-2.31-.62-3s-.72-2.2-.92-2.84a18.44,18.44,0,0,0-6.44-8.27,15.2,15.2,0,0,0-5.61-2.29l-.37-.06h.18a7.06,7.06,0,0,1-6.53-4.27,7.18,7.18,0,0,1,9.3-9.4,7.32,7.32,0,0,1,4.56,6.69l-1.76-2.2c9.38,3.11,15.25,12.37,17.88,21.43a64.68,64.68,0,0,1,2.25,12.3,1,1,0,0,1-1.92.23Z"/><path class="cls-15" d="M3043.94,228.35c17-26.55,35.53-15.67,35.53-15.67a6.42,6.42,0,0,0,9-1.46,6.4,6.4,0,0,0-1.45-8.95,6.42,6.42,0,0,0-8.95,1.46s-19-8.16-42.53,16.9l-.91,1Z"/><g class="cls-13"><path class="cls-2" d="M3035.49,220.63c25.25-20.64,44.25-12.39,44.25-12.39,5.69-7,9.5,1.44,9.5,1.44a6.41,6.41,0,0,0-11.22-6S3059,195.57,3035.49,220.63Z"/></g><path class="cls-4" d="M3033.86,221l4.27-4.59c1.54-1.43,3.06-2.88,4.64-4.27l3.74-2.93c7-5,15.21-8.63,23.93-8.75a25,25,0,0,1,8.46,1.24l-2.71.75a8.78,8.78,0,0,1,4-3,8.58,8.58,0,0,1,11.4,9.2,8.46,8.46,0,0,1-11.09,6.76c-10-6-20.77-2.82-28.93,5.61a53.93,53.93,0,0,0-6.49,8.14,1.39,1.39,0,0,1-2.34-1.51,57.45,57.45,0,0,1,6.64-8.73c7.43-8.2,18.85-12.91,29.6-8.5a10.84,10.84,0,0,1,1.58.77,4.48,4.48,0,0,0,5,.1,4.36,4.36,0,0,0-1.35-7.9,4.23,4.23,0,0,0-4.35,1.7,2.15,2.15,0,0,1-2.72.76c-.09-.05-.34-.13-.52-.2a21.7,21.7,0,0,0-4.08-.91c-.7-.05-1.45-.14-2.15-.17-.48,0-1.7,0-2.17,0a40,40,0,0,0-18.81,6.21c-1.54.84-3.55,2.4-5,3.4-1.59,1.25-3.14,2.58-4.7,3.88l-4.39,4.27a1,1,0,0,1-1.44-1.31Z"/><path class="cls-8" d="M2938.23,255.81a46.81,46.81,0,0,1-5.14,12.71,2.66,2.66,0,0,1-4.83-.54c-1.83-5.6-4.13-10.83-6.61-14.36a11,11,0,0,0,9.63-.3S2934.21,257.33,2938.23,255.81Z"/><path class="cls-4" d="M2939,254.91c.57,1,.31,2.4.17,3.5a32.57,32.57,0,0,1-4.14,11.7,5.17,5.17,0,0,1-8.94-.75c-.8-2.26-1.47-4.76-2.27-7-.92-2.75-1.93-5.44-3.1-8.09a1.16,1.16,0,0,1,1.42-1.64,9.05,9.05,0,0,0,7.9-1.63l3.34.78a5.49,5.49,0,0,0,1.7,2.2,3.56,3.56,0,0,0,2.37.75,2.22,2.22,0,0,1,1.55.19Zm-1.57,1.8a.73.73,0,0,0,.46.41.66.66,0,0,0,.27,0c.06,0,0,0,0,0-3,1.38-6.45.08-8.73-2a3.87,3.87,0,0,1-.29-.29l3.35.77a12.76,12.76,0,0,1-11.36-1l1.42-1.64c3.85,4,6.18,9,8,14.15,0,.14.12.18.27.16.8-1.18,1.62-2.71,2.35-4,1.22-2.22,2.35-4.57,3.42-6.85a.63.63,0,0,0,.8.27Z"/><rect class="cls-2" x="2688.43" y="316.2" width="101.29" height="96.55" rx="47.95" transform="translate(-22.28 263.15) rotate(-5.48)"/><path class="cls-4" d="M2699.75,419.33a9.84,9.84,0,0,1-9.78-8.9l-7.84-81.74A9.84,9.84,0,0,1,2691,318l86.47-8.29a9.86,9.86,0,0,1,10.73,8.86l7.84,81.74a9.84,9.84,0,0,1-8.86,10.74l-86.46,8.29C2700.38,419.32,2700.07,419.33,2699.75,419.33Zm78.65-104.46-.44,0-86.47,8.29a4.6,4.6,0,0,0-4.13,5l7.84,81.74a4.59,4.59,0,0,0,5,4.13l86.47-8.3h0a4.58,4.58,0,0,0,4.13-5L2783,319A4.6,4.6,0,0,0,2778.4,314.87Z"/><path class="cls-2" d="M2796.39,488.68c-13.51,3.76-25.52-17.26-28.53-36.78s-9.76-32.29-9.76-32.29,6,44.3-6,59.31-21.77,15-27.78,10.52c-3.66-2.75-3.14-11.06-2.17-17.14.61-3.91,1.42-6.89,1.42-6.89l-13.83-65.1h0l-4.19-19.73-5.26,19.52s6.76,7.51,4.51,12a10,10,0,0,1-6.76,5.25s1.5,9.76-6,11.26c-5.09,1-12.24-1.06-16.56-7.88a26.27,26.27,0,0,1-3.71-13.14c-.64-14.66,7.92-52.6,21.1-72.45a39.18,39.18,0,0,1,7.42-8.63c9.86-8.15,55.56-27.78,79.59-12,0,0,1.71,2.47,3.49,5.27a62.13,62.13,0,0,1,3.5,6c.51,1.07,1.08,2.31,1.7,3.67,2.54,5.6,5.77,13.21,7.82,19.42a133.43,133.43,0,0,1,5.24,22.92c.32,2.25.58,4.52.78,6.76,2.32,25.51.6,59.83-.3,74.16-.27,4.23-.46,6.71-.46,6.71S2809.91,484.93,2796.39,488.68Z"/><g class="cls-12"><path class="cls-4" d="M2803.69,479.8c-.83,4.17-2.92,7.67-7.3,8.88-13.51,3.76-25.52-17.26-28.53-36.78s-9.76-32.29-9.76-32.29,6,44.3-6,59.31-21.77,15-27.78,10.52c-3.66-2.75-3.14-11.06-2.17-17.14,0,0-.55,12.65,9.6,12.65,9.84,0,18-14.25,19-24.82.59-6.6.45-17.71.25-25.13a9.06,9.06,0,0,0-7.17-8.65c-10-2.08-27.85-8.25-34.08-26h0l-4.19-19.73-5.26,19.52s6.76,7.51,4.51,12a10,10,0,0,1-6.76,5.25s1.5,9.76-6,11.26c-5.09,1-16.06-2.5-19.13-13.71,5.78,10.13,20.36,12.29,21-1.27,0,0,8.93-5.49-.36-11.54a5.54,5.54,0,0,1-2.45-5.82c1.44-6.67,4.77-21.09,10.12-39a19.58,19.58,0,0,0-8.07-22l-.24-.16a39.18,39.18,0,0,1,7.42-8.63c9.86-8.15,55.56-27.78,79.59-12,0,0,1.71,2.47,3.49,5.27-7.63,13.05-23.3,24.91-54.66,26.75a6.87,6.87,0,0,0-6.47,6.43c-.24,3.68,0,7.83,1.85,8.86,3.61,2,57-10.15,60.39-12.92s2.65-19.34,2.65-19.34a11.46,11.46,0,0,0,1.44-.13c2.54,5.6,5.77,13.21,7.82,19.42a133.43,133.43,0,0,1,5.24,22.92h0A21,21,0,0,0,2790.55,386a12.54,12.54,0,0,1-6.17,8.79c-6.92,3.7-35.8,8.75-50.65,8.93a1.84,1.84,0,0,0-.77,3.51,46.6,46.6,0,0,0,24.55,4,76,76,0,0,0,24.42-6.49,3.24,3.24,0,0,1,4.37,4.12c-1.61,4.17-4.34,9.14-8.84,12.58a8.43,8.43,0,0,0-3.25,8.11c1.52,8.79,4.55,25.14,6.42,27.23,2.56,2.89,18,7.44,20.93-4.75l.55.69a20.92,20.92,0,0,1-13.61,10.8c-2.31.57-5,2.94-4.12,7.68C2785.4,476.84,2793.23,483.16,2803.69,479.8Z"/></g><path class="cls-4" d="M2786.44,326.13a84.89,84.89,0,0,1,11.85,22.9,132.89,132.89,0,0,1,5.88,25.27c1.83,17.07,1.88,34.15,1.54,51.24-.3,11.36-.81,22.67-1.71,34l-.11-.87c2.34,8.31,4.54,19.24,0,27.15-3.18,5.31-10.38,6.88-15.91,4.66-12.65-5.27-19.33-22.72-21.91-35.16-1.9-11.89-4.73-23.78-10.06-34.61l4.42-1.42c.63,5,1,10,1.29,15,.5,14.39,1,36.9-9.36,48-6.69,8.05-18,16.41-28.5,9.72-7.73-4.43-4.25-20-2.58-27.18l0,1.1-18-84.84,4.59.13-5.26,19.52-.52-2.19c.72.82,1.29,1.57,1.89,2.39,2.46,3.51,5.18,8.57,2.68,12.78a12.32,12.32,0,0,1-8.19,6l1.94-2.69a17.78,17.78,0,0,1,.08,4c-.26,3.94-2.37,8.06-6.34,9.49-9.56,3-19.41-3.62-22.64-12.55-6.82-15.93,5.37-55.71,12.59-71.47,4-8.5,8.65-17.4,16.49-23.07,7.94-5.29,16.52-8.75,25.44-11.75,13.37-4.25,27.64-7,41.66-4.43a39.31,39.31,0,0,1,13.52,5.32,2.36,2.36,0,1,1-2.56,4,34.45,34.45,0,0,0-11.87-4.66c-19.33-3.74-47.16,4.88-63.49,15.41-16.5,12.24-26.87,53-28.87,73.14-.57,6-.45,11.86,2.08,17.23s8.06,9.38,14.09,8.83l1-.14a6.49,6.49,0,0,0,1.38-.5c2.75-1.44,3-5.28,2.75-8.09l1.94-2.69a7.65,7.65,0,0,0,4.86-3.66c1.54-2.66-2.18-7.55-4-9.7a2.36,2.36,0,0,1-.52-2.19l5.25-19.52a2.37,2.37,0,0,1,4.59.12l18,84.84a2.47,2.47,0,0,1,0,1.05c-1.27,5.37-3.75,16.83-.44,21.28a10.08,10.08,0,0,0,2.34,1.51l.7.28.35.14c8.7,2.52,16.33-5.62,21.43-11.71,7.63-10.36,7.23-30.33,6.77-43-.25-4.87-.64-9.79-1.24-14.58a2.35,2.35,0,0,1,2-2.68c2.59-.29,3.07,3.08,4,4.76a121.4,121.4,0,0,1,7.61,25.15c1.41,9.44,3.73,18.93,8.58,27.2,2.34,4,5.26,7.82,8.85,10.26,3.89,2.83,10.25,3.19,13-1.29,2.7-4.86,2-11,1.14-16.35a60.54,60.54,0,0,0-1.64-6.85,2.6,2.6,0,0,1-.11-.87l.27-8.45c.54-19.65.83-39.52.07-59.13-.42-11.13-1.28-22.2-4.13-33a135.6,135.6,0,0,0-5-15.82c-1.93-5.2-4.08-10.42-5.63-16a.88.88,0,0,1,.6-1.08.9.9,0,0,1,1,.34Z"/><path class="cls-4" d="M2803.06,461.62a30.67,30.67,0,0,1-14.1,3.43,23.4,23.4,0,0,1-4.8-.56,1.35,1.35,0,0,1,.44-2.66,24.77,24.77,0,0,0,15.64-4.64,2.63,2.63,0,1,1,2.82,4.43Z"/><path class="cls-4" d="M2779,447.9a67.71,67.71,0,0,1-13.08-1.33,2.63,2.63,0,1,1,1-5.16c23,4.51,33.8-4.94,33.91-5a2.63,2.63,0,0,1,3.56,3.87C2803.94,440.63,2795.83,447.9,2779,447.9Z"/><path class="cls-4" d="M2738.31,453.83a67.21,67.21,0,0,1-19.13-2.76,2.62,2.62,0,1,1,1.62-5h0c.21.06,20.77,6.55,37.61-1.82a2.63,2.63,0,1,1,2.34,4.7A50.38,50.38,0,0,1,2738.31,453.83Z"/><path class="cls-4" d="M2740.33,417.2c11.92.37,24.07-.79,35-5.86,1.63-.64,3.09-1.57,4.72-2.25a1,1,0,0,1,1.39.46,1,1,0,0,1-.18,1.07,31.43,31.43,0,0,1-8.83,6.78,40.32,40.32,0,0,1-24.53,3.9,32,32,0,0,1-8-2.27,1,1,0,0,1,.49-1.83Z"/><path class="cls-4" d="M2725,463.18c4.76,3,10.94,3.26,16.46,2.87a.88.88,0,0,1,.33,1.72,40.51,40.51,0,0,1-9.41,1.56,22.68,22.68,0,0,1-10.16-1.69,2.63,2.63,0,0,1,2.78-4.46Z"/><path class="cls-4" d="M2702.92,380.56c.73-13.79,1.11-27.55,3.37-41.21a1.28,1.28,0,0,1,2.52.4c-.41,3.31-.57,6.73-.68,10.14-.3,10.22-.18,20.49,0,30.71a2.63,2.63,0,1,1-5.26,0Z"/><path class="cls-4" d="M2705.61,382.66a2.63,2.63,0,0,1-2.11-1.05c-7-9.28-25.23-8.69-25.42-8.69a2.63,2.63,0,1,1-.21-5.25c.87,0,21.22-.71,29.84,10.79a2.62,2.62,0,0,1-2.1,4.2Z"/><path class="cls-4" d="M2697.3,419.88a9,9,0,0,1-5.57-7.29c-.05-1.4-.32-4.27,1.75-4.1a1.44,1.44,0,0,1,1.23,1.22,9,9,0,0,0,.43,2.19,4.63,4.63,0,0,0,3.64,2.94,2.63,2.63,0,0,1-1.48,5Z"/><path class="cls-2" d="M2658.6,264a77.87,77.87,0,0,0-.28-15.27,83.85,83.85,0,0,0-3.76-17.56l5-1s.62,6.69,5,16.3A79.81,79.81,0,0,0,2670.9,258Z"/><path class="cls-4" d="M2658.22,264.52l.06-.58a77.55,77.55,0,0,0-.28-15.2,83.61,83.61,0,0,0-3.74-17.5l-.12-.35,5.65-1.16,0,.35c0,.07.67,6.76,4.94,16.19a80.92,80.92,0,0,0,6.39,11.51l.21.3ZM2655,231.38a84.59,84.59,0,0,1,3.66,17.29,82.21,82.21,0,0,1,.33,14.77l11.46-5.61a80.15,80.15,0,0,1-6.24-11.29,59.73,59.73,0,0,1-5-16Z"/><g class="cls-12"><path class="cls-4" d="M2664.48,246.41c-3.81-1.47-5.49.78-6.16,2.29a83.85,83.85,0,0,0-3.76-17.56l5-1S2660.13,236.8,2664.48,246.41Z"/></g><path class="cls-4" d="M2656.51,267l.34-3.17a84.53,84.53,0,0,0-4-32.1l-.62-1.88,8.81-1.81.18,1.95c0,.14,1.28,12.3,11.1,27l1.11,1.67Zm.32-34.5a89.17,89.17,0,0,1,3.72,28.6l7.79-3.81c-7.26-11.45-9.59-21.06-10.3-25Z"/><circle class="cls-16" cx="2657.12" cy="230.12" r="6.89"/><path class="cls-4" d="M2657.12,238.76a8.65,8.65,0,1,1,8.64-8.64A8.65,8.65,0,0,1,2657.12,238.76Zm0-13.77a5.13,5.13,0,1,0,5.13,5.13A5.14,5.14,0,0,0,2657.12,225Z"/><g class="cls-17"><ellipse class="cls-2" cx="2657.12" cy="227.31" rx="2.79" ry="1.23"/></g><path class="cls-2" d="M2802.11,274.39h0a1.37,1.37,0,0,1-1.6-1.11l-7.89-39.75a1.4,1.4,0,0,1,1.06-1.66h0a14.36,14.36,0,0,1,16.8,11.6l2.69,13.56C2814.76,265,2809.8,272.8,2802.11,274.39Z"/><path class="cls-4" d="M2801.84,274.73a1.61,1.61,0,0,1-.9-.27,1.76,1.76,0,0,1-.75-1.12l-7.88-39.75a1.71,1.71,0,0,1,1.3-2,14.08,14.08,0,0,1,10.71,2.1,15.06,15.06,0,0,1,6.47,9.75l2.69,13.55c1.62,8.16-3.45,16.12-11.3,17.74h0A2,2,0,0,1,2801.84,274.73Zm-5.37-42.83a13.33,13.33,0,0,0-2.73.29,1.06,1.06,0,0,0-.8,1.27l7.88,39.76a1.11,1.11,0,0,0,.47.7,1,1,0,0,0,.76.15h0c7.51-1.55,12.36-9.17,10.81-17l-2.69-13.56a14.55,14.55,0,0,0-6.2-9.34A13.5,13.5,0,0,0,2796.47,231.9Z"/><g class="cls-12"><path class="cls-4" d="M2811.91,250.67l1.26,6.36a14.64,14.64,0,0,1-11.06,17.36,1.37,1.37,0,0,1-1.6-1.11l-2.1-10.57a1.34,1.34,0,0,0,1.37.57l.91-.19A14.4,14.4,0,0,0,2811.91,250.67Z"/></g><path class="cls-4" d="M2801.84,276.67a3.57,3.57,0,0,1-2-.6,3.66,3.66,0,0,1-1.57-2.35L2790.41,234a3.65,3.65,0,0,1,2.81-4.29,16,16,0,0,1,12.17,2.38,17.05,17.05,0,0,1,7.3,11l2.69,13.56c1.82,9.19-3.92,18.16-12.81,20h0A3.71,3.71,0,0,1,2801.84,276.67ZM2795,233.93l7.54,38a12.46,12.46,0,0,0,8.42-14.5l-2.69-13.55a12.56,12.56,0,0,0-5.37-8.11A11.6,11.6,0,0,0,2795,233.93Z"/><path class="cls-2" d="M2667.42,258h0a1.37,1.37,0,0,1,1.6,1.11l7.89,39.75a1.4,1.4,0,0,1-1.06,1.66h0a14.36,14.36,0,0,1-16.8-11.6l-2.69-13.56C2654.77,267.35,2659.73,259.57,2667.42,258Z"/><path class="cls-4" d="M2673.06,301.11a14.15,14.15,0,0,1-7.85-2.4,15.12,15.12,0,0,1-6.48-9.75l-2.68-13.55c-1.62-8.16,3.45-16.12,11.3-17.74h0a1.65,1.65,0,0,1,1.24.24,1.76,1.76,0,0,1,.75,1.12l7.88,39.75a1.71,1.71,0,0,1-1.3,2A13.9,13.9,0,0,1,2673.06,301.11Zm-5.58-42.81h0c-7.51,1.55-12.35,9.17-10.8,17l2.68,13.56a14.51,14.51,0,0,0,6.2,9.34,13.46,13.46,0,0,0,10.23,2,1.06,1.06,0,0,0,.8-1.27l-7.88-39.76a1.11,1.11,0,0,0-.47-.7A1,1,0,0,0,2667.48,258.3Z"/><g class="cls-12"><path class="cls-4" d="M2674.72,287.81l2.19,11a1.4,1.4,0,0,1-1.06,1.66,13.85,13.85,0,0,1-11.14-2.53,14.92,14.92,0,0,1-5.66-9.07l-1.13-5.71a14.07,14.07,0,0,0,14.38,5.88l1.39-.29A1.37,1.37,0,0,0,2674.72,287.81Z"/></g><path class="cls-4" d="M2673.05,303a16.09,16.09,0,0,1-8.91-2.72,17.05,17.05,0,0,1-7.3-11l-2.69-13.56c-1.82-9.19,3.92-18.16,12.81-20h0a3.53,3.53,0,0,1,2.7.52,3.63,3.63,0,0,1,1.57,2.35l7.89,39.76a3.65,3.65,0,0,1-2.81,4.29A15.63,15.63,0,0,1,2673.05,303ZM2667,260.41a12.46,12.46,0,0,0-8.42,14.5l2.69,13.55a12.52,12.52,0,0,0,5.37,8.11,11.59,11.59,0,0,0,7.9,1.87Z"/><ellipse class="cls-2" cx="2734.77" cy="266.18" rx="66.53" ry="69.1" transform="translate(-12.89 252.22) rotate(-5.27)"/><path class="cls-4" d="M2735.14,335.59a65.31,65.31,0,0,1-40-13.79,69.94,69.94,0,0,1-26.67-46.93c-4.86-38,20.92-72.75,57.47-77.54a65.13,65.13,0,0,1,48.45,13.24,69.94,69.94,0,0,1,26.66,46.93h0c4.87,38-20.91,72.74-57.46,77.53A65.2,65.2,0,0,1,2735.14,335.59Zm-.73-138.17a64,64,0,0,0-8.38.55c-36.2,4.74-61.73,39.2-56.91,76.81a69.32,69.32,0,0,0,26.42,46.51,64.45,64.45,0,0,0,48,13.11c36.21-4.75,61.74-39.2,56.92-76.82A69.34,69.34,0,0,0,2774,211.07,64.71,64.71,0,0,0,2734.41,197.42Z"/><g class="cls-18"><path class="cls-4" d="M2798.9,248.14a73.37,73.37,0,0,1,1.85,9.4c4.84,37.85-20.76,72.4-57.19,77.18s-69.91-22.05-74.76-59.89c-.14-1.09-.26-2.19-.34-3.26,8.72,32.77,39.57,54.85,72.9,50.48C2776.75,317.41,2801.91,284.69,2798.9,248.14Z"/></g><path class="cls-4" d="M2735.13,337.52A67.18,67.18,0,0,1,2694,323.33a71.83,71.83,0,0,1-27.4-48.22c-5-39,21.52-74.77,59.13-79.69A67,67,0,0,1,2775.58,209a71.88,71.88,0,0,1,27.4,48.21h0c5,39-21.53,74.77-59.13,79.7A67.31,67.31,0,0,1,2735.13,337.52Zm-.72-138.17a61.9,61.9,0,0,0-8.13.54c-35.15,4.6-59.93,38.09-55.24,74.65a67.35,67.35,0,0,0,25.68,45.22,62.51,62.51,0,0,0,46.54,12.72c35.15-4.6,59.93-38.09,55.25-74.65h0a67.4,67.4,0,0,0-25.68-45.23A62.78,62.78,0,0,0,2734.41,199.35Z"/><path class="cls-4" d="M2800.76,259.33a63.81,63.81,0,0,1-6.17,37.75c-4.26,8.5-24.38,25.23-51.56,29.48-25.2,3.95-50.16-6.66-56.62-13.58a63.4,63.4,0,0,1-16.5-34.42c-5.06-35.42,22.13-54.4,58.26-59.71S2795.7,223.91,2800.76,259.33Z"/><g class="cls-18"><path class="cls-19" d="M2783.31,228.16c9.13,6.75,15.41,16.94,17.45,31.17a63.89,63.89,0,0,1-6.17,37.75c-4.26,8.5-24.38,25.23-51.56,29.48a79.15,79.15,0,0,1-27.67-.81c33.29-6,57.78-26.48,63.06-37a81,81,0,0,0,7.83-47.92A71.79,71.79,0,0,0,2783.31,228.16Z"/></g><path class="cls-4" d="M2670.52,249.42a1.79,1.79,0,0,1-1.58-2.6c9-19.34,30-32.75,57.59-36.8,27.37-4,51.19,2.46,65.39,17.78a1.79,1.79,0,0,1-2.13,2.84l-.23-.13-.19-.21c-13.38-14.5-36.09-20.61-62.32-16.75-26.38,3.88-46.39,16.57-54.9,34.83l-.11.21A1.81,1.81,0,0,1,2670.52,249.42Z"/><g class="cls-20"><path class="cls-2" d="M2687.62,297.47s-15.55-33.39.58-50,42.22-20.37,41.86-18.54c0,0-27.83,11.5-35.74,36.87C2688.23,285.4,2687.62,297.47,2687.62,297.47Z"/></g><g class="cls-20"><ellipse class="cls-2" cx="2779.54" cy="261.32" rx="12.22" ry="8.54" transform="translate(2458.33 3034.58) rotate(-88.76)"/></g><g class="cls-20"><ellipse class="cls-2" cx="2772.63" cy="286.82" rx="5.6" ry="4.65" transform="translate(2150.47 3003.92) rotate(-83.01)"/></g><path class="cls-2" d="M2826.2,289.84c-8.38,31.36-28.36,56.9-28.36,56.9l-8-15.05-8.79-16.54a77.49,77.49,0,0,0,10.37-17.29,87.66,87.66,0,0,0,6.12-19.37s1.08-2.43-2.16-13.24c-.2-.65-.35-1.28-.47-1.86-1.79-9.18,5.6-11,5.6-11s-.37-4.82,2.76-8.07c1.52-1.59,3.88-2.8,7.51-2.89,5.26-.12,10.87,3.7,14.44,11.1v0C2829.18,260.77,2830.6,273.36,2826.2,289.84Z"/><path class="cls-4" d="M2795.38,352.88a2.57,2.57,0,0,1-1.55-.51,2.62,2.62,0,0,1-.56-3.67c.22-.3,22.24-30.49,30.39-61,4.42-16.55,3.13-31.42-3.45-39.78-2.66-3.38-6-5.3-9.16-5.3h-.19c-2.57.07-4.52.8-5.79,2.18-2.13,2.34-1.93,5.93-1.93,6a2.64,2.64,0,0,1-2,2.74A5.61,5.61,0,0,0,2798,256c-.95,1.7-1,4.06-.1,7,2.79,9.29,2.66,13.11,2.19,14.66-.46,2.3-5,23.69-18,39.81a2.63,2.63,0,1,1-4.09-3.3c12.63-15.65,17-37.46,17-37.67s0-.29.1-.46c.08-.71.16-3.67-2.2-11.54-1.32-4.41-1.12-8.17.61-11.18a10.56,10.56,0,0,1,4.47-4.2,13.52,13.52,0,0,1,3.2-7.85c2.27-2.51,5.5-3.83,9.58-3.93,4.92-.11,9.86,2.54,13.61,7.3s11.38,18.24,4.4,44.38c-8.41,31.47-30.31,61.48-31.24,62.74A2.62,2.62,0,0,1,2795.38,352.88Z"/><path class="cls-4" d="M2814.64,320.69a2.65,2.65,0,0,1-2.38-1.49c-7.73-16.14-22-20-22.16-20.07a2.63,2.63,0,0,1,1.31-5.09c.68.17,16.75,4.46,25.59,22.89a2.61,2.61,0,0,1-1.23,3.5A2.55,2.55,0,0,1,2814.64,320.69Z"/><path class="cls-4" d="M2801,258.71c1.57,1.83,6.44,6.53,6.6,1.42-.11-3.78-4.12-6.09-7.6-6.58a2.63,2.63,0,0,1,.95-5.17c5.65.79,11.65,5.56,11.12,12-.13,3.69-3.58,7.19-7.5,5.56-2.86-1.3-4.17-3.59-5.31-6.2a1,1,0,0,1,1.74-1Z"/><path class="cls-11" d="M2811.43,257a15.65,15.65,0,0,0,10.71.93,1.52,1.52,0,0,1,.9,2.88,19.55,19.55,0,0,1-13.83,1,2.63,2.63,0,0,1,2.22-4.76Z"/><g class="cls-12"><path class="cls-4" d="M2826.7,290.88c-8.38,31.36-28.36,56.9-28.36,56.9l-8-15c2.44-2.71,12-15.16,1.59-33.83a88.32,88.32,0,0,0,6.12-19.37s1.08-2.43-2.17-13.24c-.19-.65-.34-1.28-.46-1.86l1.91-2.11a7.73,7.73,0,0,1,6.8-2.38c1.37.18,3-.52,4.6-3.66,0,0-8.54-3.38-4.95-10.89,0,0,6.5,13.13,21.95,8.21v0C2829.68,261.81,2831.09,274.4,2826.7,290.88Z"/></g><path class="cls-2" d="M2705,375.51h0a7.33,7.33,0,0,0,7.37,6.43c15.23-.23,53.9-2.18,84.18-15.5a7.3,7.3,0,0,0,4.2-8.36c-.05-.2-.1-.42-.16-.63a7.1,7.1,0,0,0-10-4.9c-11.34,5-37.21,14-78.38,14.74A7.33,7.33,0,0,0,2705,375.51Z"/><g class="cls-12"><path class="cls-4" d="M2800.33,364.72c-34.57,16.71-82.47,17.31-92.57,17.24a2.2,2.2,0,0,1-2.16-1.93l-1.26-10.24a2.18,2.18,0,0,1,2.19-2.45c1.92,0,3.81,0,5.67,0l.8,6.54a2.05,2.05,0,0,0,2.13,1.83c9.41-.33,52-2.7,85.49-18.25a33.24,33.24,0,0,1,.92,5.13A2.18,2.18,0,0,1,2800.33,364.72Z"/></g><path class="cls-4" d="M2712.24,384.56a9.87,9.87,0,0,1-9.8-8.68h0a10,10,0,0,1,9.78-11.22c40.21-.74,65.56-9.35,77.09-14.41a10.21,10.21,0,0,1,8.63.05,10,10,0,0,1,5.3,6.75l.05.19a10.11,10.11,0,0,1-5.81,11.68c-30.71,13.45-69.73,15.42-85.09,15.64Zm81.4-30a5.44,5.44,0,0,0-2.22.49c-11.89,5.22-38,14.1-79.11,14.85a4.75,4.75,0,0,0-3.53,1.65,4.65,4.65,0,0,0-1.12,3.68h0a4.62,4.62,0,0,0,4.59,4.07h.07c15-.22,53.22-2.14,83-15.2a4.85,4.85,0,0,0,2.82-5.58l-.05-.2a4.86,4.86,0,0,0-2.51-3.31A4.56,4.56,0,0,0,2793.64,354.57Z"/><path class="cls-2" d="M2723.2,354.26c9-2.05,33.9-7.37,51.12-7.51a5.29,5.29,0,0,1,4.87,3.13,65.25,65.25,0,0,1,5.36,27.92,5.31,5.31,0,0,1-3.41,4.85c-7.19,2.71-26,8.68-53.35,9.16a5.3,5.3,0,0,1-5-3.29,58.3,58.3,0,0,1-3.66-29.89A5.27,5.27,0,0,1,2723.2,354.26Z"/><g class="cls-12"><path class="cls-4" d="M2784.55,377.8a5.31,5.31,0,0,1-3.41,4.85c-7.19,2.71-26,8.68-53.34,9.16a5.3,5.3,0,0,1-5-3.29,58.38,58.38,0,0,1-3.66-29.88,5.3,5.3,0,0,1,4-4.39l2.61-.58a59.25,59.25,0,0,0,4.21,24.17,5.27,5.27,0,0,0,5,3.28c23.37-.4,40.53-4.83,49.5-7.8C2784.56,374.77,2784.58,376.26,2784.55,377.8Z"/></g><path class="cls-4" d="M2727.7,394.43a7.93,7.93,0,0,1-7.32-4.92,60.8,60.8,0,0,1-3.83-31.27,7.88,7.88,0,0,1,6.06-6.55h0c9.78-2.23,34.38-7.43,51.69-7.57h.07a7.92,7.92,0,0,1,7.21,4.68,67.78,67.78,0,0,1,5.59,29.06,7.9,7.9,0,0,1-5.11,7.25c-7,2.64-26.31,8.84-54.22,9.32Zm46.67-45.05h0c-16.79.14-41,5.25-50.56,7.44h0a2.63,2.63,0,0,0-2,2.21,55.47,55.47,0,0,0,3.5,28.51,2.68,2.68,0,0,0,2.5,1.64c27.08-.47,45.71-6.45,52.46-9a2.66,2.66,0,0,0,1.71-2.45,62.49,62.49,0,0,0-5.13-26.78A2.66,2.66,0,0,0,2774.37,349.38Zm-51.17,4.88h0Z"/><path class="cls-4" d="M2754.44,392.26A1.49,1.49,0,0,1,2753,391l-2.76-18.14-8.46-3.65a1.49,1.49,0,0,1-.87-1.08l-3.43-16.82a1.5,1.5,0,0,1,2.94-.6l3.27,16.05,8.5,3.68a1.47,1.47,0,0,1,.89,1.15l2.89,19a1.5,1.5,0,0,1-1.26,1.71Z"/><circle class="cls-16" cx="2766.67" cy="365.28" r="6.17"/><path class="cls-4" d="M2766.67,373.7a8.42,8.42,0,1,1,8.43-8.42A8.43,8.43,0,0,1,2766.67,373.7Zm0-12.34a3.92,3.92,0,1,0,3.92,3.92A3.93,3.93,0,0,0,2766.67,361.36Z"/><path class="cls-8" d="M2822.18,260.18a55.53,55.53,0,0,0-3.22,7.89,2.66,2.66,0,0,1-4.83.54,47.06,47.06,0,0,1-3.44-7.18,6.39,6.39,0,0,0,.12-2.6A29.87,29.87,0,0,0,2822.18,260.18Z"/><path class="cls-4" d="M2823.82,259.11a3,3,0,0,1-.11,2.41c0,.09-.29.68-.34.78-.52,1.22-1,2.57-1.47,3.81-.65,1.64-.75,3.45-2.14,4.75a5,5,0,0,1-7.7-1.05c0-.09-.42-.68-.48-.79a49.86,49.86,0,0,1-3.35-6.65,2.45,2.45,0,0,1-.08-1.62,4.3,4.3,0,0,0,0-1.76,2.53,2.53,0,0,1,3.48-2.65,25.22,25.22,0,0,0,7.68,1.77c.82.08,1.64.07,2.47.14a4.13,4.13,0,0,1,2,.86Zm-3.27,2.14a1,1,0,0,0,.56.93.77.77,0,0,0,.19.05h-.05a31.23,31.23,0,0,1-11.29-.92l3.46-2.86a9.19,9.19,0,0,1-.2,3.67l-.08-1.62a45.42,45.42,0,0,0,2.05,5c.2.38.7,1.42.91,1.79l.08.15,0,0c0,.12.09.2.3.2s.25,0,.38-.27c.33-.92.68-1.84,1-2.74.63-1.54,1.39-3.18,2.16-4.66l.09-.16s0-.05,0,0a1.29,1.29,0,0,0,.36,1.48Z"/><g class="cls-12"><path class="cls-4" d="M3012.2,455.29c-3.19,2.65-7.74,6.77-11.91,4.94-13.37-5.91-12.23-29.21-10.53-41.92a13.74,13.74,0,0,1,8-10.73,35.09,35.09,0,0,0,9.91-6.38,3.48,3.48,0,0,0-2.49-6c-12.85.27-39.86-1.36-50.7-18.78-8.55-13.74-6.11-34.1-2.68-48.45a25.74,25.74,0,0,0-8.63-25.7,59.05,59.05,0,0,1-8.56-8.81c-8.62-11-2.81-24.5,7.09-28a.28.28,0,0,1,0-.06,13.87,13.87,0,0,0,2.12-13.42c-3,1.82-7.76,3.9-11.3,1.34a99.55,99.55,0,0,0,8.36-8.58,9.11,9.11,0,0,0-3.8-5.8c-3.85,5.71-11.66,14.32-24.63,16.32-1.37,8.52-.1,19.79,4.39,33.14a157.12,157.12,0,0,0,27.56,49.07s-5.4,10.08-7.41,30.72.93,68.55.93,68.55-5.95,34,12.43,30.4,19.1-41.21,19.1-41.21l6.31-24.87c-3.25,64.87,21.08,70.27,31.13,68.11C3011.78,468.11,3012.62,461.64,3012.2,455.29ZM2957,436.73c-4.74,18.45-5.92,21.33-11.45,20.25s-5.18-23.06-5.18-23.06-5.31-42.67,9.06-40.26C2958.43,395.18,2961.74,418.28,2957,436.73Z"/></g><g class="cls-12"><path class="cls-4" d="M3049.15,404c-16.75,7-19.61-2.7-16.83-7,0,0-8.72-3.78,0-12.43l-5.78-17.45.32-36s6.48,3.35,8.6,19.34,4.89,27.65,6.56,32.62-5.25,6.29-3.23,11.4c1.87,4.74,16.22,2.31,19.19-13.24C3059.37,391.52,3058.19,400.18,3049.15,404Z"/></g></g></g></svg>