<?xml version="1.0" encoding="utf-8"?>
<!-- Generator: Adobe Illustrator 25.0.0, SVG Export Plug-In . SVG Version: 6.00 Build 0)  -->
<svg version="1.1" id="Layer_1" xmlns="http://www.w3.org/2000/svg" xmlns:xlink="http://www.w3.org/1999/xlink" x="0px" y="0px"
	 viewBox="0 0 99.8 53.4" style="enable-background:new 0 0 99.8 53.4;" xml:space="preserve">
<style type="text/css">
	.st0{fill:#FAFAFA;}
</style>
<g id="Layer_2_1_">
	<g id="Layer_5">
		<path class="st0" d="M1.8,27.6l25.3-0.1c0.4,0,0.7,0.1,1,0.4c0.3,0.3,0.4,0.6,0.4,1L28.3,35c0,0.7-0.6,1.3-1.3,1.3l-12.5,0.1
			c-0.1,0-0.1,0-0.2,0.1c0,0.1-0.1,0.1-0.1,0.2l0.6,15c-0.1,0.7-0.6,1.3-1.4,1.4l-7.1,0.3c-0.4,0-0.7-0.1-1-0.4
			c-0.3-0.2-0.5-0.6-0.4-1l0.2-15.4c0-0.1,0-0.1-0.1-0.2c0-0.1-0.1-0.1-0.2-0.1l-3.1,0.1c-0.8,0-1.4-0.5-1.4-1.3c0,0,0-0.1,0-0.1
			l0.1-6C0.4,28.2,1,27.6,1.8,27.6z"/>
		<path class="st0" d="M36.5,40.2c0-3.3,1-6.5,3-9.2V29c0-0.4-0.1-0.7-0.4-1c-0.2-0.3-0.6-0.5-1-0.4h-6.2c-0.4,0-0.7,0.1-1,0.4
			c-0.3,0.3-0.4,0.6-0.4,1v12.2c0,0.1,0,0.1-0.1,0.2c0,0.1-0.1,0.1-0.2,0.1l-2.8-0.1c-0.1,0-0.2-0.1-0.2-0.2c0,0,0,0,0,0l0.2-1.2
			c0-0.4-0.1-0.7-0.4-1c-0.3-0.3-0.6-0.4-1-0.4h-6.2c-0.4,0-0.7,0.1-1,0.4c-0.3,0.3-0.4,0.6-0.4,1v11.8c0,0.4,0.1,0.7,0.4,1
			c0.2,0.3,0.6,0.5,1,0.4h5.9c0.8,0,1.4-0.6,1.4-1.4l0.1-3.4c0-0.1,0.1-0.3,0.2-0.3h2.9c0.1,0,0.2,0.1,0.2,0.2c0,0,0,0,0,0v3.4
			c0,0.4,0.1,0.7,0.4,1c0.3,0.3,0.6,0.5,1,0.4h5.8c0.8,0,1.4-0.6,1.4-1.4V49C37.4,46.4,36.5,43.3,36.5,40.2z"/>
		<path class="st0" d="M79.2,40.2c0,7-5,12.7-11.2,12.7s-11.2-5.7-11.2-12.7s5-12.7,11.2-12.7S79.2,33.2,79.2,40.2z M64.6,40.8
			c0,2.4,1.7,4.4,3.6,4.4s3.6-2,3.6-4.4s-1.6-4.4-3.6-4.4S64.6,38.4,64.6,40.8z"/>
		<path class="st0" d="M60.3,40.2c0,7-5,12.7-11.2,12.7S38,47.3,38,40.2s5-12.7,11.2-12.7S60.3,33.2,60.3,40.2z M45.8,40.8
			c0,2.4,1.7,4.4,3.6,4.4s3.6-2,3.6-4.4s-1.6-4.4-3.6-4.4S45.8,38.4,45.8,40.8z"/>
		<path class="st0" d="M99.8,27.8c-0.2-0.3-0.6-0.5-1-0.4h-5.6c-0.8,0-1.4,0.6-1.4,1.4c0,0,0,0,0,0V37c0,0.1-0.1,0.2-0.2,0.2
			c-0.1,0-0.2-0.1-0.2-0.1l-3.7-8.7c-0.2-0.5-0.7-0.9-1.3-0.8H80c-0.8,0-1.4,0.6-1.4,1.3c0,0,0,0,0,0v3.6c2.8,4.9,2.7,11-0.3,15.9v3
			c0,0.8,0.6,1.4,1.3,1.4l6,0.2c0.4,0,0.7-0.1,1-0.4c0.3-0.3,0.4-0.6,0.4-1l0.2-6.7c0-0.1,0.1-0.2,0.2-0.2c0.1,0,0.2,0,0.3,0.1
			c0,0,0,0,0,0l3,7.4c0.2,0.6,0.8,0.9,1.3,0.9l6,0c0.7,0,1.3-0.6,1.4-1.3l0.8-22.8C100.2,28.5,100.1,28.1,99.8,27.8z"/>
		<path class="st0" d="M19.2,23.4l2.1-8l0.2-13.8c0-0.4-0.1-0.7-0.4-1c-0.3-0.3-0.6-0.4-1-0.4h-6.2c-0.4,0-0.7,0.1-1,0.4
			c-0.3,0.3-0.4,0.6-0.4,1v9.3c0,0.1-0.1,0.1-0.1,0.1c0,0.1-0.1,0.1-0.2,0.1L9.4,11c-0.1,0-0.2-0.1-0.2-0.2c0,0,0,0,0,0l0.1-9.2
			c0-0.4-0.1-0.7-0.4-1c-0.3-0.3-0.6-0.4-1-0.4l-6.2,0c-0.4,0-0.7,0.1-1,0.4c-0.3,0.3-0.4,0.6-0.4,1l0,22.6c0,0.4,0.1,0.7,0.4,1
			c0.3,0.3,0.6,0.5,1,0.4h5.9C8.4,25.6,9,25,9,24.2l0.1-6.4c0-0.1,0.1-0.3,0.3-0.3h2.9c0.1,0,0.2,0.1,0.2,0.2c0,0,0,0,0,0v6.4
			c0,0.4,0.1,0.7,0.4,1c0.2,0.3,0.6,0.5,1,0.4h5.7C19.1,25,19,24.2,19.2,23.4z"/>
		<path class="st0" d="M42.9,22.4c-1.8-2.6-2.8-5.6-2.9-8.8c0-0.4,0-0.8,0-1.1c0-0.6,0-1.2,0.1-1.9l-2.3-9.6C37.6,0.4,37,0,36.3,0
			l-8.6,0.1c-0.6,0-1.2,0.4-1.4,1.1l-5.8,22.6c-0.1,0.4,0,0.9,0.3,1.2c0.3,0.4,0.7,0.6,1.1,0.6l6.2,0.1c0.7,0,1.3-0.5,1.4-1.2
			l0.2-1.4c0-0.1,0.1-0.2,0.2-0.2H34c0.1,0,0.2,0.1,0.2,0.2l0.2,1.3c0.1,0.7,0.7,1.2,1.4,1.2h6c0.8,0,1.4-0.7,1.4-1.5
			c0-0.1,0-0.2,0-0.2L42.9,22.4z M32.7,15.7c-0.1,0.1-0.1,0.1-0.2,0.1h-1.4c-0.1,0-0.1,0-0.2-0.1c-0.1-0.1-0.1-0.1-0.1-0.2l0.6-4.2
			c0-0.1,0.1-0.2,0.2-0.2c0.1,0,0.2,0.1,0.2,0.2l0.8,4.1C32.8,15.5,32.8,15.6,32.7,15.7z"/>
		<path class="st0" d="M55.4,9.7c-0.6,0.3-1.4,0-1.7-0.6c-0.3-0.8-1.1-1.3-1.9-1.4c-1.4,0-2.8,1.7-2.8,5c0,0.4,0,0.7,0.1,1.1
			c0.3,2.7,1.8,4.1,3.1,4.1c0.8,0,1.5-0.5,1.8-1.3c0.3-0.6,1-0.9,1.6-0.7l4.6,1.4c0.4,0.1,0.7,0.3,0.8,0.7c0.2,0.3,0.2,0.7,0.1,1.1
			c-1.2,3.6-4.5,6.2-8.4,6.4c-7.5,0.4-10.9-5.8-11.2-12c0-0.3,0-0.6,0-1c0-6.3,3.3-12.4,10.4-12.5c3.9-0.1,7.4,2.3,8.7,6.1
			c0.2,0.7-0.1,1.4-0.8,1.7L55.4,9.7z"/>
		<path class="st0" d="M63.8,0.1L69.6,0c0.4,0,0.7,0.1,1,0.4c0.3,0.3,0.4,0.6,0.4,1l-0.2,6.2c0,0.1,0.1,0.2,0.2,0.3
			c0.1,0,0.2-0.1,0.2-0.2L73.4,1c0.2-0.5,0.7-0.9,1.3-0.9L80.2,0c0.5,0,0.9,0.2,1.2,0.6c0.3,0.4,0.3,0.9,0.2,1.3l-3.9,10.2l4.6,11.4
			c0.2,0.4,0.1,0.9-0.1,1.3c-0.2,0.4-0.6,0.6-1.1,0.6l-5.5,0.4c-0.6,0.1-1.1-0.3-1.4-0.8L71,17.7c0-0.1-0.2-0.2-0.3-0.1
			c-0.1,0-0.2,0.1-0.2,0.2l0.2,6.3c0,0.4-0.1,0.7-0.4,1c-0.3,0.3-0.6,0.4-1,0.4l-5.5,0.1c-0.4,0-0.7-0.1-1-0.4
			c-0.3-0.3-0.4-0.6-0.4-1V1.5C62.5,0.8,63.1,0.2,63.8,0.1z"/>
		<path class="st0" d="M99.6,21.2c-0.3-0.3-0.7-0.4-1.1-0.4l-13.8,0.1c-0.6,0-1.2,0.4-1.4,1l0.5,1.2c0.3,0.8,0.2,1.6-0.2,2.4l0,0
			c0.3,0.3,0.7,0.4,1.1,0.4h13.8c0.8,0.1,1.5-0.5,1.5-1.3v-2.3C100,21.8,99.8,21.4,99.6,21.2z"/>
		<path class="st0" d="M87.4,0.9c0.1-0.5,0.5-0.8,1-0.8L94.9,0c0.5,0,0.9,0.3,1,0.8l4.1,17c0.1,0.3,0,0.6-0.2,0.9
			c-0.2,0.3-0.5,0.4-0.8,0.4h-4.5c-0.5,0-0.9-0.4-1-0.9l-0.2-1c0-0.1-0.1-0.2-0.2-0.1h-2.9c-0.1,0-0.2,0-0.2,0.2l-0.2,1
			c-0.1,0.5-0.5,0.9-1,0.9l-4.6,0c-0.6,0-1.1-0.6-1-1.2c0-0.1,0-0.1,0-0.2L87.4,0.9z M91.6,8.5c0-0.1-0.1-0.1-0.2-0.1
			c-0.1,0-0.1,0.1-0.2,0.1l-0.5,3.1c0,0.1,0,0.1,0,0.2c0,0,0.1,0,0.1,0h1c0.1,0,0.1,0,0.2-0.1c0,0,0-0.1,0-0.1L91.6,8.5z"/>
	</g>
</g>
</svg>
