<?xml version="1.0" encoding="utf-8"?>
<!-- Generator: Adobe Illustrator 25.0.0, SVG Export Plug-In . SVG Version: 6.00 Build 0)  -->
<svg version="1.1" id="Layer_1" xmlns="http://www.w3.org/2000/svg" xmlns:xlink="http://www.w3.org/1999/xlink" x="0px" y="0px"
	 viewBox="0 0 198.8 26" style="enable-background:new 0 0 198.8 26;" xml:space="preserve">
<style type="text/css">
	.st0{fill:#09090B;}
</style>
<g id="Layer_2_1_">
	<g id="Layer_5">
		<path class="st0" d="M18.8,23.5l2.1-8.1l0.2-13.8c0-0.4-0.1-0.7-0.4-1c-0.2-0.3-0.6-0.5-1-0.4h-6.2c-0.4,0-0.7,0.1-1,0.4
			c-0.3,0.3-0.4,0.6-0.4,1v9.3c0,0.1,0,0.1-0.1,0.2c0,0.1-0.1,0.1-0.2,0.1L9.1,11c-0.1,0-0.2-0.1-0.2-0.2c0,0,0,0,0,0L9,1.7
			c0-0.4-0.1-0.7-0.4-1C8.4,0.4,8,0.2,7.6,0.2l-6.2,0c-0.4,0-0.7,0.1-1,0.4C0.2,0.9,0,1.2,0,1.6l0,22.6c0,0.4,0.1,0.7,0.4,1
			c0.2,0.3,0.6,0.5,1,0.4h5.9c0.8,0,1.4-0.6,1.4-1.4l0.1-6.4c0-0.1,0.1-0.3,0.3-0.3h2.9c0.1,0,0.2,0.1,0.2,0.2c0,0,0,0,0,0v6.4
			c0,0.4,0.1,0.7,0.4,1c0.2,0.3,0.6,0.5,1,0.4h5.7C18.8,25,18.7,24.3,18.8,23.5z"/>
		<path class="st0" d="M42.5,22.5c-1.8-2.6-2.8-5.6-2.9-8.8c0-0.4,0-0.8,0-1.1c0-0.6,0-1.3,0.1-1.9l-2.3-9.6C37.3,0.5,36.7,0,36,0.1
			l-8.5,0.1c-0.6,0-1.2,0.4-1.4,1.1l-5.8,22.6c-0.1,0.4,0,0.9,0.3,1.2c0.3,0.4,0.7,0.6,1.1,0.6l6.2,0.1c0.7,0,1.3-0.5,1.4-1.2
			l0.2-1.4c0-0.1,0.1-0.2,0.2-0.2h3.9c0.1,0,0.2,0.1,0.2,0.2l0.2,1.3c0.1,0.7,0.7,1.2,1.4,1.2h6c0.4,0,0.8-0.2,1.1-0.5
			c0.3-0.3,0.4-0.8,0.3-1.2L42.5,22.5z M32.4,15.7c-0.1,0.1-0.1,0.1-0.2,0.1h-1.4c-0.1,0-0.1,0-0.2-0.1c-0.1-0.1-0.1-0.1-0.1-0.2
			l0.6-4.2c0-0.1,0.1-0.2,0.2-0.2c0.1,0,0.2,0.1,0.2,0.2l0.8,4.1C32.4,15.6,32.4,15.7,32.4,15.7z"/>
		<path class="st0" d="M55,9.7c-0.6,0.3-1.4,0-1.7-0.6c-0.3-0.8-1.1-1.3-1.9-1.4c-1.4,0-2.8,1.7-2.8,5c0,0.4,0,0.8,0.1,1.1
			c0.2,2.6,1.8,4.1,3.1,4.1c0.8,0,1.5-0.5,1.8-1.3c0.3-0.6,0.9-0.9,1.6-0.7l4.6,1.4c0.4,0.1,0.7,0.3,0.8,0.7
			c0.2,0.3,0.2,0.7,0.1,1.1c-1.2,3.6-4.5,6.2-8.4,6.4c-7.5,0.4-10.9-5.8-11.2-12c0-0.3,0-0.6,0-1c0-6.3,3.3-12.3,10.4-12.5
			c3.9-0.1,7.4,2.3,8.7,6c0.2,0.7-0.1,1.5-0.8,1.7L55,9.7z"/>
		<path class="st0" d="M63.5,0.2l5.8-0.1c0.4,0,0.7,0.2,1,0.4c0.3,0.3,0.4,0.6,0.4,1l-0.2,6.2c0,0.1,0.1,0.2,0.2,0.3
			c0.1,0,0.2-0.1,0.2-0.2l2.2-6.7c0.2-0.6,0.7-0.9,1.3-0.9l5.5-0.1c0.5,0,0.9,0.2,1.2,0.6C81.3,1,81.3,1.6,81.2,2l-3.9,10.1
			l4.6,11.4c0.2,0.4,0.1,0.9-0.1,1.3c-0.2,0.4-0.6,0.6-1.1,0.6l-5.5,0.4c-0.6,0-1.1-0.3-1.4-0.8l-3.2-7.3c0-0.1-0.2-0.2-0.3-0.1
			c0,0,0,0,0,0c-0.1,0-0.2,0.1-0.2,0.2l0.2,6.3c0,0.4-0.1,0.7-0.4,1c-0.3,0.3-0.6,0.4-1,0.4l-5.5,0.1c-0.4,0-0.7-0.1-1-0.4
			c-0.3-0.3-0.4-0.6-0.4-1V1.6C62.2,0.9,62.7,0.2,63.5,0.2z"/>
		<path class="st0" d="M99.2,21.2c-0.3-0.3-0.7-0.4-1.1-0.4l-13.8,0.1c-0.6,0-1.2,0.4-1.4,0.9l0.5,1.1c0.3,0.8,0.2,1.6-0.2,2.4l0,0
			c0.3,0.3,0.7,0.4,1.1,0.4h13.8c0.8,0.1,1.5-0.5,1.5-1.3v-2.3C99.6,21.8,99.5,21.5,99.2,21.2z"/>
		<path class="st0" d="M87.1,0.9c0.1-0.5,0.5-0.8,1-0.8l6.4-0.1c0.5,0,0.9,0.3,1,0.8l4.1,17c0.1,0.6-0.2,1.1-0.8,1.3
			c-0.1,0-0.1,0-0.2,0h-4.5c-0.5,0-0.9-0.4-1-0.9l-0.2-1c0-0.1-0.1-0.2-0.2-0.2c0,0,0,0,0,0h-2.9c-0.1,0-0.2,0-0.2,0.1l-0.2,1
			c-0.1,0.5-0.5,0.9-1,0.9l-4.6,0c-0.3,0-0.6-0.2-0.8-0.4c-0.2-0.2-0.3-0.6-0.2-0.9L87.1,0.9z M91.3,8.5c0-0.1-0.1-0.2-0.2-0.2
			c-0.1,0-0.1,0.1-0.2,0.2l-0.5,3.1c0,0,0,0.1,0,0.1c0,0,0.1,0.1,0.1,0.1h1c0.1,0,0.1,0,0.2-0.1c0,0,0-0.1,0-0.1L91.3,8.5z"/>
		<path class="st0" d="M100.5,0.1L125.7,0c0.4,0,0.8,0.1,1,0.4c0.3,0.3,0.4,0.6,0.4,1L127,7.6c0,0.7-0.6,1.3-1.3,1.3L113.1,9
			c-0.1,0-0.1,0-0.2,0.1s-0.1,0.1-0.1,0.2l0.6,15c0,0.8-0.6,1.4-1.3,1.4l-7.2,0.3c-0.8,0-1.4-0.6-1.5-1.4c0,0,0,0,0,0l0.3-15.4
			c0-0.1,0-0.1-0.1-0.2c0-0.1-0.1-0.1-0.2-0.1l-3.1,0c-0.4,0-0.7-0.1-1-0.4C99.2,8.3,99,8,99,7.6l0.1-6C99.1,0.8,99.7,0.2,100.5,0.1
			z"/>
		<path class="st0" d="M135.1,12.8c0-3.3,1-6.5,3-9.2V1.6c0-0.4-0.1-0.7-0.4-1c-0.2-0.3-0.6-0.5-1-0.4h-6.2c-0.4,0-0.7,0.1-1,0.4
			c-0.3,0.3-0.4,0.6-0.4,1v12.2c0,0.1,0,0.1-0.1,0.2c0,0.1-0.1,0.1-0.2,0.1l-2.8-0.1c-0.1,0-0.2-0.1-0.2-0.2c0,0,0,0,0,0l0.2-1.3
			c0-0.4-0.1-0.7-0.4-1c-0.3-0.3-0.6-0.5-1-0.4h-6.2c-0.4,0-0.7,0.1-1,0.4c-0.3,0.3-0.4,0.6-0.4,1v11.8c0,0.4,0.1,0.7,0.4,1
			c0.3,0.3,0.6,0.4,1,0.4h5.9c0.8,0,1.4-0.6,1.4-1.4l0.1-3.4c0-0.1,0.1-0.2,0.2-0.2h2.9c0.1,0,0.2,0.1,0.2,0.2c0,0,0,0,0,0v3.4
			c0,0.4,0.1,0.7,0.4,1c0.3,0.3,0.6,0.4,1,0.4h5.9c0.8,0,1.4-0.6,1.4-1.4l0.1-2.6C136.1,19,135.1,15.9,135.1,12.8z"/>
		<path class="st0" d="M177.8,12.8c0,7-5,12.7-11.2,12.7s-11.2-5.7-11.2-12.7s5-12.7,11.2-12.7S177.8,5.8,177.8,12.8z M163.2,13.4
			c0,2.4,1.7,4.4,3.6,4.4s3.6-2,3.6-4.4S168.9,9,166.9,9S163.2,11,163.2,13.4z"/>
		<path class="st0" d="M159,12.8c0,7-5,12.7-11.2,12.7c-6.2,0-11.2-5.7-11.2-12.7s5-12.7,11.2-12.7C154,0.1,159,5.8,159,12.8z
			 M144.5,13.4c0,2.4,1.7,4.4,3.6,4.4c2,0,3.6-2,3.6-4.4S150.1,9,148.1,9C146.1,9,144.5,11,144.5,13.4z"/>
		<path class="st0" d="M198.4,0.4c-0.2-0.3-0.6-0.5-1-0.4h-5.7c-0.8,0-1.4,0.6-1.4,1.4v8.2c0,0.1-0.1,0.2-0.2,0.2
			c-0.1,0-0.2-0.1-0.3-0.2L186.3,1c-0.2-0.5-0.7-0.9-1.3-0.9h-6.3c-0.8,0-1.4,0.6-1.4,1.4c0,0,0,0,0,0l-0.1,3.6
			c2.8,4.9,2.7,11-0.3,15.8v3c0,0.8,0.6,1.4,1.4,1.4l6,0.2c0.4,0,0.7-0.1,1-0.4c0.3-0.3,0.4-0.6,0.4-1l0.2-6.7
			c0-0.1,0.1-0.2,0.2-0.2c0.1,0,0.2,0,0.3,0.1c0,0,0,0,0,0l3,7.4c0.2,0.6,0.8,0.9,1.4,0.9l6.1-0.1c0.7,0,1.3-0.6,1.4-1.4l0.7-22.8
			C198.9,1,198.7,0.7,198.4,0.4z"/>
		<path class="st0" d="M159,12.8c0,7-5,12.7-11.2,12.7s-11.2-5.7-11.2-12.7s5-12.7,11.1-12.7S159,5.8,159,12.8z M144.5,13.4
			c0,2.4,1.6,4.4,3.6,4.4s3.6-2,3.6-4.4S150.1,9,148.1,9S144.4,11,144.5,13.4L144.5,13.4z"/>
	</g>
</g>
</svg>
